# xmcd CD database file
#
# Track frame offsets:
#	183
#	11405
#	21035
#	33123
#	44010
#	55630
#	66243
#	76655
#	86568
#	97218
#	109505
#	120688
#	131133
#	142068
#	152728
#	164163
#	175173
#	184480
#
# Disc length: 2603 seconds
#
# Revision: 0
# Processed by: cddbd v1.4PL0 Copyright (c) Steve Scherf et al.
# Submitted via: CDex 1.40Release
#
DISCID=f50a2912
DTITLE=Dolly Parton - The Little Things
DYEAR=1993
DGENRE=Country
TTITLE0=Dumb Blonde
TTITLE1=Something Fishy
TTITLE2=Fuel To The Flame
TTITLE3=The Little Things
TTITLE4=The Company You Keep
TTITLE5=Why, Why, Why
TTITLE6=Put It Off Until Tomorrow
TTITLE7=I'm In No Condition
TTITLE8=Too Lonely Too Long
TTITLE9=As Long As I Live
TTITLE10=What Do You Think About Loving
TTITLE11=I Wasted My Tears
TTITLE12=I Couldn't Wait Forever
TTITLE13=Ping Pong
TTITLE14=I'm Not Worth The Tears
TTITLE15=The Giving And The Taking
TTITLE16=Busy Signal
TTITLE17=I Took Him For Granted
EXTD=YEAR: 1993 ID3G: 2
EXTT0=
EXTT1=
EXTT2=
EXTT3=
EXTT4=
EXTT5=
EXTT6=
EXTT7=
EXTT8=
EXTT9=
EXTT10=
EXTT11=
EXTT12=
EXTT13=
EXTT14=
EXTT15=
EXTT16=
EXTT17=
PLAYORDER=
